<svg width="772" height="106" viewBox="0 0 772 106" fill="none" xmlns="http://www.w3.org/2000/svg">
<path d="M77 9.2V79H63V33.6L44.3 79H33.7L14.9 33.6V79H0.900001V9.2H16.8L39 61.1L61.2 9.2H77ZM87.2414 51.1C87.2414 45.5 88.3414 40.5333 90.5414 36.2C92.8081 31.8667 95.8414 28.5333 99.6414 26.2C103.508 23.8667 107.808 22.7 112.541 22.7C116.675 22.7 120.275 23.5333 123.341 25.2C126.475 26.8667 128.975 28.9667 130.841 31.5V23.6H144.941V79H130.841V70.9C129.041 73.5 126.541 75.6667 123.341 77.4C120.208 79.0667 116.575 79.9 112.441 79.9C107.775 79.9 103.508 78.7 99.6414 76.3C95.8414 73.9 92.8081 70.5333 90.5414 66.2C88.3414 61.8 87.2414 56.7667 87.2414 51.1ZM130.841 51.3C130.841 47.9 130.175 45 128.841 42.6C127.508 40.1333 125.708 38.2667 123.441 37C121.175 35.6667 118.741 35 116.141 35C113.541 35 111.141 35.6333 108.941 36.9C106.741 38.1667 104.941 40.0333 103.541 42.5C102.208 44.9 101.541 47.7667 101.541 51.1C101.541 54.4333 102.208 57.3667 103.541 59.9C104.941 62.3667 106.741 64.2667 108.941 65.6C111.208 66.9333 113.608 67.6 116.141 67.6C118.741 67.6 121.175 66.9667 123.441 65.7C125.708 64.3667 127.508 62.5 128.841 60.1C130.175 57.6333 130.841 54.7 130.841 51.3ZM165.715 17C163.182 17 161.082 16.2333 159.415 14.7C157.815 13.1 157.015 11.1333 157.015 8.8C157.015 6.46666 157.815 4.53333 159.415 2.99999C161.082 1.4 163.182 0.599996 165.715 0.599996C168.182 0.599996 170.215 1.4 171.815 2.99999C173.415 4.53333 174.215 6.46666 174.215 8.8C174.215 11.1333 173.415 13.1 171.815 14.7C170.215 16.2333 168.182 17 165.715 17ZM172.615 88.1C172.615 94.2333 171.082 98.6333 168.015 101.3C165.015 104.033 160.682 105.4 155.015 105.4H148.815V93.5H152.815C154.948 93.5 156.448 93.0667 157.315 92.2C158.182 91.4 158.615 90.0667 158.615 88.2V23.6H172.615V88.1ZM193.547 17C191.014 17 188.914 16.2333 187.247 14.7C185.647 13.1 184.847 11.1333 184.847 8.8C184.847 6.46666 185.647 4.53333 187.247 2.99999C188.914 1.4 191.014 0.599996 193.547 0.599996C196.014 0.599996 198.047 1.4 199.647 2.99999C201.247 4.53333 202.047 6.46666 202.047 8.8C202.047 11.1333 201.247 13.1 199.647 14.7C198.047 16.2333 196.014 17 193.547 17ZM200.447 88.1C200.447 94.2333 198.914 98.6333 195.847 101.3C192.847 104.033 188.514 105.4 182.847 105.4H176.647V93.5H180.647C182.78 93.5 184.28 93.0667 185.147 92.2C186.014 91.4 186.447 90.0667 186.447 88.2V23.6H200.447V88.1ZM210.679 51.1C210.679 45.5 211.779 40.5333 213.979 36.2C216.246 31.8667 219.279 28.5333 223.079 26.2C226.946 23.8667 231.246 22.7 235.979 22.7C240.112 22.7 243.712 23.5333 246.779 25.2C249.912 26.8667 252.412 28.9667 254.279 31.5V23.6H268.379V79H254.279V70.9C252.479 73.5 249.979 75.6667 246.779 77.4C243.646 79.0667 240.012 79.9 235.879 79.9C231.212 79.9 226.946 78.7 223.079 76.3C219.279 73.9 216.246 70.5333 213.979 66.2C211.779 61.8 210.679 56.7667 210.679 51.1ZM254.279 51.3C254.279 47.9 253.612 45 252.279 42.6C250.946 40.1333 249.146 38.2667 246.879 37C244.612 35.6667 242.179 35 239.579 35C236.979 35 234.579 35.6333 232.379 36.9C230.179 38.1667 228.379 40.0333 226.979 42.5C225.646 44.9 224.979 47.7667 224.979 51.1C224.979 54.4333 225.646 57.3667 226.979 59.9C228.379 62.3667 230.179 64.2667 232.379 65.6C234.646 66.9333 237.046 67.6 239.579 67.6C242.179 67.6 244.612 66.9667 246.879 65.7C249.146 64.3667 250.946 62.5 252.279 60.1C253.612 57.6333 254.279 54.7 254.279 51.3ZM314.852 79L296.052 55.4V79H282.052V5H296.052V47.1L314.652 23.6H332.852L308.452 51.4L333.052 79H314.852ZM336.851 51.1C336.851 45.5 337.951 40.5333 340.151 36.2C342.417 31.8667 345.451 28.5333 349.251 26.2C353.117 23.8667 357.417 22.7 362.151 22.7C366.284 22.7 369.884 23.5333 372.951 25.2C376.084 26.8667 378.584 28.9667 380.451 31.5V23.6H394.551V79H380.451V70.9C378.651 73.5 376.151 75.6667 372.951 77.4C369.817 79.0667 366.184 79.9 362.051 79.9C357.384 79.9 353.117 78.7 349.251 76.3C345.451 73.9 342.417 70.5333 340.151 66.2C337.951 61.8 336.851 56.7667 336.851 51.1ZM380.451 51.3C380.451 47.9 379.784 45 378.451 42.6C377.117 40.1333 375.317 38.2667 373.051 37C370.784 35.6667 368.351 35 365.751 35C363.151 35 360.751 35.6333 358.551 36.9C356.351 38.1667 354.551 40.0333 353.151 42.5C351.817 44.9 351.151 47.7667 351.151 51.1C351.151 54.4333 351.817 57.3667 353.151 59.9C354.551 62.3667 356.351 64.2667 358.551 65.6C360.817 66.9333 363.217 67.6 365.751 67.6C368.351 67.6 370.784 66.9667 373.051 65.7C375.317 64.3667 377.117 62.5 378.451 60.1C379.784 57.6333 380.451 54.7 380.451 51.3ZM452.024 28.6C452.024 34.8 450.091 39.6333 446.224 43.1C442.358 46.5 436.624 48.2 429.024 48.2H414.024V79H409.524V8.8H429.024C436.758 8.8 442.524 10.6 446.324 14.2C450.124 17.7333 452.024 22.5333 452.024 28.6ZM429.024 44.2C441.358 44.2 447.524 39 447.524 28.6C447.524 23.4667 446.058 19.5667 443.124 16.9C440.191 14.1667 435.491 12.8 429.024 12.8H414.024V44.2H429.024ZM468.614 35.9C469.947 31.9 472.314 28.8667 475.714 26.8C479.114 24.6667 483.447 23.6 488.714 23.6V28.3H487.214C481.881 28.3 477.447 29.8333 473.914 32.9C470.381 35.9 468.614 40.8333 468.614 47.7V79H464.114V24.7H468.614V35.9ZM522.975 79.8C517.908 79.8 513.342 78.6667 509.275 76.4C505.208 74.1333 502.008 70.9 499.675 66.7C497.408 62.4333 496.275 57.4667 496.275 51.8C496.275 46.2 497.442 41.3 499.775 37.1C502.108 32.8333 505.308 29.6 509.375 27.4C513.508 25.1333 518.108 24 523.175 24C528.242 24 532.808 25.1333 536.875 27.4C540.942 29.6 544.108 32.8 546.375 37C548.708 41.2 549.875 46.1333 549.875 51.8C549.875 57.4667 548.708 62.4333 546.375 66.7C544.042 70.9 540.808 74.1333 536.675 76.4C532.608 78.6667 528.042 79.8 522.975 79.8ZM522.975 75.8C526.908 75.8 530.575 74.9333 533.975 73.2C537.442 71.4 540.208 68.7 542.275 65.1C544.342 61.5 545.375 57.0667 545.375 51.8C545.375 46.6 544.342 42.2 542.275 38.6C540.208 35 537.475 32.3333 534.075 30.6C530.675 28.8 527.008 27.9 523.075 27.9C519.142 27.9 515.475 28.8 512.075 30.6C508.742 32.3333 506.042 35 503.975 38.6C501.908 42.2 500.875 46.6 500.875 51.8C500.875 57.0667 501.875 61.5 503.875 65.1C505.942 68.7 508.642 71.4 511.975 73.2C515.375 74.9333 519.042 75.8 522.975 75.8ZM560.728 51.8C560.728 46.1333 561.828 41.2 564.028 37C566.295 32.8 569.395 29.6 573.328 27.4C577.328 25.1333 581.895 24 587.028 24C593.828 24 599.395 25.7 603.728 29.1C608.128 32.5 610.861 37.0667 611.928 42.8H607.228C606.361 38.1333 604.095 34.4667 600.428 31.8C596.828 29.1333 592.361 27.8 587.028 27.8C583.028 27.8 579.395 28.7 576.128 30.5C572.861 32.2333 570.228 34.9333 568.228 38.6C566.295 42.2 565.328 46.6 565.328 51.8C565.328 57.0667 566.295 61.5 568.228 65.1C570.228 68.7 572.861 71.4 576.128 73.2C579.395 75 583.028 75.9 587.028 75.9C592.361 75.9 596.828 74.5667 600.428 71.9C604.095 69.2333 606.361 65.5667 607.228 60.9H611.928C610.861 66.5667 608.128 71.1333 603.728 74.6C599.328 78.0667 593.761 79.8 587.028 79.8C581.895 79.8 577.328 78.6667 573.328 76.4C569.395 74.1333 566.295 70.9 564.028 66.7C561.828 62.4333 560.728 57.4667 560.728 51.8ZM671.538 24.7V79H667.038V67.2C665.504 71.3333 662.938 74.5 659.338 76.7C655.804 78.8333 651.738 79.9 647.138 79.9C640.671 79.9 635.371 77.9333 631.238 74C627.171 70 625.138 64.1 625.138 56.3V24.7H629.538V56C629.538 62.4667 631.171 67.4333 634.438 70.9C637.704 74.3 642.138 76 647.738 76C653.604 76 658.271 74.1333 661.738 70.4C665.271 66.6667 667.038 61.1333 667.038 53.8V24.7H671.538ZM692.442 35.9C693.776 31.9 696.142 28.8667 699.542 26.8C702.942 24.6667 707.276 23.6 712.542 23.6V28.3H711.042C705.709 28.3 701.276 29.8333 697.742 32.9C694.209 35.9 692.442 40.8333 692.442 47.7V79H687.942V24.7H692.442V35.9ZM771.803 48.2C771.803 50.6 771.736 52.4 771.603 53.6H724.703C724.836 58.4667 725.903 62.5667 727.903 65.9C729.903 69.2333 732.536 71.7333 735.803 73.4C739.07 75.0667 742.636 75.9 746.503 75.9C751.836 75.9 756.303 74.6 759.903 72C763.503 69.3333 765.77 65.7333 766.703 61.2H771.403C770.336 66.7333 767.603 71.2333 763.203 74.7C758.803 78.1 753.236 79.8 746.503 79.8C741.436 79.8 736.903 78.6667 732.903 76.4C728.903 74.1333 725.77 70.9 723.503 66.7C721.236 62.4333 720.103 57.4667 720.103 51.8C720.103 46.1333 721.203 41.2 723.403 37C725.67 32.8 728.803 29.6 732.803 27.4C736.803 25.1333 741.37 24 746.503 24C751.703 24 756.203 25.1333 760.003 27.4C763.87 29.6 766.803 32.5667 768.803 36.3C770.803 39.9667 771.803 43.9333 771.803 48.2ZM767.303 49.9C767.503 45.1 766.636 41.0333 764.703 37.7C762.836 34.3667 760.27 31.9 757.003 30.3C753.736 28.6333 750.203 27.8 746.403 27.8C742.603 27.8 739.07 28.6333 735.803 30.3C732.603 31.9 729.97 34.3667 727.903 37.7C725.903 41.0333 724.836 45.1 724.703 49.9H767.303Z" fill="black" fill-opacity="0.8"/>
</svg>
