<svg width="40" height="40" viewBox="0 0 40 40" fill="none" xmlns="http://www.w3.org/2000/svg">
<g id="Tradeshift/WrittenRequest">
<path id="background" d="M3.78909 40C1.69636 40 0 38.3036 0 36.2109V3.78909C0 1.69636 1.69636 0 3.78909 0H36.2109C38.3036 0 40 1.69636 40 3.78909V36.2109C40 38.3036 38.3036 40 36.2109 40H3.78909Z" fill="#00AEFF"/>
<path id="icon" fill-rule="evenodd" clip-rule="evenodd" d="M20.3977 25.7272H26.9204V7.27271H20.3977V25.7272ZM7.27271 19.2046H18.1704V16.7387H7.27271V19.2046ZM29.2275 19.2046H32.7276V16.7387H29.2275V19.2046ZM7.27271 24.1363H18.1704V21.6704H7.27271V24.1363ZM29.2275 24.1363H32.7276V21.6704H29.2275V24.1363ZM7.27271 29.0683H18.1704V26.6024H7.27271V29.0683ZM23.6788 32.6079L26.9204 26.8408H20.3977L23.6788 32.6079Z" fill="white"/>
</g>
</svg>
