<svg width="186" height="26" viewBox="0 0 186 26" fill="none" xmlns="http://www.w3.org/2000/svg">
<path d="M18.92 2.248V19H15.56V8.104L11.072 19H8.528L4.016 8.104V19H0.656V2.248H4.472L9.8 14.704L15.128 2.248H18.92ZM21.3779 12.304C21.3779 10.96 21.6419 9.768 22.1699 8.728C22.7139 7.688 23.4419 6.888 24.3539 6.328C25.2819 5.768 26.3139 5.488 27.4499 5.488C28.4419 5.488 29.3059 5.688 30.0419 6.088C30.7939 6.488 31.3939 6.992 31.8419 7.6V5.704H35.2259V19H31.8419V17.056C31.4099 17.68 30.8099 18.2 30.0419 18.616C29.2899 19.016 28.4179 19.216 27.4259 19.216C26.3059 19.216 25.2819 18.928 24.3539 18.352C23.4419 17.776 22.7139 16.968 22.1699 15.928C21.6419 14.872 21.3779 13.664 21.3779 12.304ZM31.8419 12.352C31.8419 11.536 31.6819 10.84 31.3619 10.264C31.0419 9.672 30.6099 9.224 30.0659 8.92C29.5219 8.6 28.9379 8.44 28.3139 8.44C27.6899 8.44 27.1139 8.592 26.5859 8.896C26.0579 9.2 25.6259 9.648 25.2899 10.24C24.9699 10.816 24.8099 11.504 24.8099 12.304C24.8099 13.104 24.9699 13.808 25.2899 14.416C25.6259 15.008 26.0579 15.464 26.5859 15.784C27.1299 16.104 27.7059 16.264 28.3139 16.264C28.9379 16.264 29.5219 16.112 30.0659 15.808C30.6099 15.488 31.0419 15.04 31.3619 14.464C31.6819 13.872 31.8419 13.168 31.8419 12.352ZM40.2116 4.12C39.6036 4.12 39.0996 3.936 38.6996 3.568C38.3156 3.184 38.1236 2.712 38.1236 2.152C38.1236 1.592 38.3156 1.128 38.6996 0.759999C39.0996 0.375999 39.6036 0.183999 40.2116 0.183999C40.8036 0.183999 41.2916 0.375999 41.6756 0.759999C42.0596 1.128 42.2516 1.592 42.2516 2.152C42.2516 2.712 42.0596 3.184 41.6756 3.568C41.2916 3.936 40.8036 4.12 40.2116 4.12ZM41.8676 21.184C41.8676 22.656 41.4996 23.712 40.7636 24.352C40.0436 25.008 39.0036 25.336 37.6436 25.336H36.1556V22.48H37.1156C37.6276 22.48 37.9876 22.376 38.1956 22.168C38.4036 21.976 38.5076 21.656 38.5076 21.208V5.704H41.8676V21.184ZM46.8913 4.12C46.2833 4.12 45.7793 3.936 45.3793 3.568C44.9953 3.184 44.8033 2.712 44.8033 2.152C44.8033 1.592 44.9953 1.128 45.3793 0.759999C45.7793 0.375999 46.2833 0.183999 46.8913 0.183999C47.4833 0.183999 47.9713 0.375999 48.3553 0.759999C48.7393 1.128 48.9313 1.592 48.9313 2.152C48.9313 2.712 48.7393 3.184 48.3553 3.568C47.9713 3.936 47.4833 4.12 46.8913 4.12ZM48.5473 21.184C48.5473 22.656 48.1793 23.712 47.4433 24.352C46.7233 25.008 45.6833 25.336 44.3232 25.336H42.8352V22.48H43.7953C44.3073 22.48 44.6673 22.376 44.8753 22.168C45.0833 21.976 45.1873 21.656 45.1873 21.208V5.704H48.5473V21.184ZM51.0029 12.304C51.0029 10.96 51.2669 9.768 51.7949 8.728C52.3389 7.688 53.0669 6.888 53.9789 6.328C54.9069 5.768 55.9389 5.488 57.0749 5.488C58.0669 5.488 58.9309 5.688 59.6669 6.088C60.4189 6.488 61.0189 6.992 61.4669 7.6V5.704H64.8509V19H61.4669V17.056C61.0349 17.68 60.4349 18.2 59.6669 18.616C58.9149 19.016 58.0429 19.216 57.0509 19.216C55.9309 19.216 54.9069 18.928 53.9789 18.352C53.0669 17.776 52.3389 16.968 51.7949 15.928C51.2669 14.872 51.0029 13.664 51.0029 12.304ZM61.4669 12.352C61.4669 11.536 61.3069 10.84 60.9869 10.264C60.6669 9.672 60.2349 9.224 59.6909 8.92C59.1469 8.6 58.5629 8.44 57.9389 8.44C57.3149 8.44 56.7389 8.592 56.2109 8.896C55.6829 9.2 55.2509 9.648 54.9149 10.24C54.5949 10.816 54.4349 11.504 54.4349 12.304C54.4349 13.104 54.5949 13.808 54.9149 14.416C55.2509 15.008 55.6829 15.464 56.2109 15.784C56.7549 16.104 57.3309 16.264 57.9389 16.264C58.5629 16.264 59.1469 16.112 59.6909 15.808C60.2349 15.488 60.6669 15.04 60.9869 14.464C61.3069 13.872 61.4669 13.168 61.4669 12.352ZM76.0046 19L71.4926 13.336V19H68.1326V1.24H71.4926V11.344L75.9566 5.704H80.3246L74.4686 12.376L80.3726 19H76.0046ZM81.2842 12.304C81.2842 10.96 81.5482 9.768 82.0762 8.728C82.6202 7.688 83.3482 6.888 84.2602 6.328C85.1882 5.768 86.2202 5.488 87.3562 5.488C88.3482 5.488 89.2122 5.688 89.9482 6.088C90.7002 6.488 91.3002 6.992 91.7482 7.6V5.704H95.1322V19H91.7482V17.056C91.3162 17.68 90.7162 18.2 89.9482 18.616C89.1962 19.016 88.3242 19.216 87.3322 19.216C86.2122 19.216 85.1882 18.928 84.2602 18.352C83.3482 17.776 82.6202 16.968 82.0762 15.928C81.5482 14.872 81.2842 13.664 81.2842 12.304ZM91.7482 12.352C91.7482 11.536 91.5882 10.84 91.2682 10.264C90.9482 9.672 90.5162 9.224 89.9722 8.92C89.4282 8.6 88.8442 8.44 88.2202 8.44C87.5962 8.44 87.0202 8.592 86.4922 8.896C85.9642 9.2 85.5322 9.648 85.1962 10.24C84.8762 10.816 84.7162 11.504 84.7162 12.304C84.7162 13.104 84.8762 13.808 85.1962 14.416C85.5322 15.008 85.9642 15.464 86.4922 15.784C87.0362 16.104 87.6122 16.264 88.2202 16.264C88.8442 16.264 89.4282 16.112 89.9722 15.808C90.5162 15.488 90.9482 15.04 91.2682 14.464C91.5882 13.872 91.7482 13.168 91.7482 12.352ZM108.926 6.904C108.926 8.392 108.462 9.552 107.534 10.384C106.606 11.2 105.23 11.608 103.406 11.608H99.8058V19H98.7258V2.152H103.406C105.262 2.152 106.646 2.584 107.558 3.448C108.47 4.296 108.926 5.448 108.926 6.904ZM103.406 10.648C106.366 10.648 107.846 9.4 107.846 6.904C107.846 5.672 107.494 4.736 106.79 4.096C106.086 3.44 104.958 3.112 103.406 3.112H99.8058V10.648H103.406ZM112.907 8.656C113.227 7.696 113.795 6.968 114.611 6.472C115.427 5.96 116.467 5.704 117.731 5.704V6.832H117.371C116.091 6.832 115.027 7.2 114.179 7.936C113.331 8.656 112.907 9.84 112.907 11.488V19H111.827V5.968H112.907V8.656ZM125.954 19.192C124.738 19.192 123.642 18.92 122.666 18.376C121.69 17.832 120.922 17.056 120.362 16.048C119.818 15.024 119.546 13.832 119.546 12.472C119.546 11.128 119.826 9.952 120.386 8.944C120.946 7.92 121.714 7.144 122.69 6.616C123.682 6.072 124.786 5.8 126.002 5.8C127.218 5.8 128.314 6.072 129.29 6.616C130.266 7.144 131.026 7.912 131.57 8.92C132.13 9.928 132.41 11.112 132.41 12.472C132.41 13.832 132.13 15.024 131.57 16.048C131.01 17.056 130.234 17.832 129.242 18.376C128.266 18.92 127.17 19.192 125.954 19.192ZM125.954 18.232C126.898 18.232 127.778 18.024 128.594 17.608C129.426 17.176 130.09 16.528 130.586 15.664C131.082 14.8 131.33 13.736 131.33 12.472C131.33 11.224 131.082 10.168 130.586 9.304C130.09 8.44 129.434 7.8 128.618 7.384C127.802 6.952 126.922 6.736 125.978 6.736C125.034 6.736 124.154 6.952 123.338 7.384C122.538 7.8 121.89 8.44 121.394 9.304C120.898 10.168 120.65 11.224 120.65 12.472C120.65 13.736 120.89 14.8 121.37 15.664C121.866 16.528 122.514 17.176 123.314 17.608C124.13 18.024 125.01 18.232 125.954 18.232ZM135.015 12.472C135.015 11.112 135.279 9.928 135.807 8.92C136.351 7.912 137.095 7.144 138.039 6.616C138.999 6.072 140.095 5.8 141.327 5.8C142.959 5.8 144.295 6.208 145.335 7.024C146.391 7.84 147.047 8.936 147.303 10.312H146.175C145.967 9.192 145.423 8.312 144.543 7.672C143.679 7.032 142.607 6.712 141.327 6.712C140.367 6.712 139.495 6.928 138.711 7.36C137.927 7.776 137.295 8.424 136.815 9.304C136.351 10.168 136.119 11.224 136.119 12.472C136.119 13.736 136.351 14.8 136.815 15.664C137.295 16.528 137.927 17.176 138.711 17.608C139.495 18.04 140.367 18.256 141.327 18.256C142.607 18.256 143.679 17.936 144.543 17.296C145.423 16.656 145.967 15.776 146.175 14.656H147.303C147.047 16.016 146.391 17.112 145.335 17.944C144.279 18.776 142.943 19.192 141.327 19.192C140.095 19.192 138.999 18.92 138.039 18.376C137.095 17.832 136.351 17.056 135.807 16.048C135.279 15.024 135.015 13.832 135.015 12.472ZM161.609 5.968V19H160.529V16.168C160.161 17.16 159.545 17.92 158.681 18.448C157.833 18.96 156.857 19.216 155.753 19.216C154.201 19.216 152.929 18.744 151.937 17.8C150.961 16.84 150.473 15.424 150.473 13.552V5.968H151.529V13.48C151.529 15.032 151.921 16.224 152.705 17.056C153.489 17.872 154.553 18.28 155.897 18.28C157.305 18.28 158.425 17.832 159.257 16.936C160.105 16.04 160.529 14.712 160.529 12.952V5.968H161.609ZM166.626 8.656C166.946 7.696 167.514 6.968 168.33 6.472C169.146 5.96 170.186 5.704 171.45 5.704V6.832H171.09C169.81 6.832 168.746 7.2 167.898 7.936C167.05 8.656 166.626 9.84 166.626 11.488V19H165.546V5.968H166.626V8.656ZM185.673 11.608C185.673 12.184 185.657 12.616 185.625 12.904H174.369C174.401 14.072 174.657 15.056 175.137 15.856C175.617 16.656 176.249 17.256 177.033 17.656C177.817 18.056 178.673 18.256 179.601 18.256C180.881 18.256 181.953 17.944 182.817 17.32C183.681 16.68 184.225 15.816 184.449 14.728H185.577C185.321 16.056 184.665 17.136 183.609 17.968C182.553 18.784 181.217 19.192 179.601 19.192C178.385 19.192 177.297 18.92 176.337 18.376C175.377 17.832 174.625 17.056 174.081 16.048C173.537 15.024 173.265 13.832 173.265 12.472C173.265 11.112 173.529 9.928 174.057 8.92C174.601 7.912 175.353 7.144 176.313 6.616C177.273 6.072 178.369 5.8 179.601 5.8C180.849 5.8 181.929 6.072 182.841 6.616C183.769 7.144 184.473 7.856 184.953 8.752C185.433 9.632 185.673 10.584 185.673 11.608ZM184.593 12.016C184.641 10.864 184.433 9.888 183.969 9.088C183.521 8.288 182.905 7.696 182.121 7.312C181.337 6.912 180.489 6.712 179.577 6.712C178.665 6.712 177.817 6.912 177.033 7.312C176.265 7.696 175.633 8.288 175.137 9.088C174.657 9.888 174.401 10.864 174.369 12.016H184.593Z" fill="white"/>
</svg>
