<svg width="314" height="70" viewBox="0 0 314 70" fill="none" xmlns="http://www.w3.org/2000/svg">
<path d="M33.2 4.08V32H27.6V13.84L20.12 32H15.88L8.36 13.84V32H2.76V4.08H9.12L18 24.84L26.88 4.08H33.2ZM37.2966 20.84C37.2966 18.6 37.7366 16.6133 38.6166 14.88C39.5232 13.1467 40.7366 11.8133 42.2566 10.88C43.8032 9.94667 45.5232 9.48 47.4166 9.48C49.0699 9.48 50.5099 9.81333 51.7366 10.48C52.9899 11.1467 53.9899 11.9867 54.7366 13V9.84H60.3766V32H54.7366V28.76C54.0166 29.8 53.0166 30.6667 51.7366 31.36C50.4832 32.0267 49.0299 32.36 47.3766 32.36C45.5099 32.36 43.8032 31.88 42.2566 30.92C40.7366 29.96 39.5232 28.6133 38.6166 26.88C37.7366 25.12 37.2966 23.1067 37.2966 20.84ZM54.7366 20.92C54.7366 19.56 54.4699 18.4 53.9366 17.44C53.4032 16.4533 52.6832 15.7067 51.7766 15.2C50.8699 14.6667 49.8966 14.4 48.8566 14.4C47.8166 14.4 46.8566 14.6533 45.9766 15.16C45.0966 15.6667 44.3766 16.4133 43.8166 17.4C43.2832 18.36 43.0166 19.5067 43.0166 20.84C43.0166 22.1733 43.2832 23.3467 43.8166 24.36C44.3766 25.3467 45.0966 26.1067 45.9766 26.64C46.8832 27.1733 47.8432 27.44 48.8566 27.44C49.8966 27.44 50.8699 27.1867 51.7766 26.68C52.6832 26.1467 53.4032 25.4 53.9366 24.44C54.4699 23.4533 54.7366 22.28 54.7366 20.92ZM68.6859 7.2C67.6726 7.2 66.8326 6.89333 66.1659 6.28C65.5259 5.64 65.2059 4.85333 65.2059 3.92C65.2059 2.98667 65.5259 2.21333 66.1659 1.6C66.8326 0.959998 67.6726 0.639998 68.6859 0.639998C69.6726 0.639998 70.4859 0.959998 71.1259 1.6C71.7659 2.21333 72.0859 2.98667 72.0859 3.92C72.0859 4.85333 71.7659 5.64 71.1259 6.28C70.4859 6.89333 69.6726 7.2 68.6859 7.2ZM71.4459 35.64C71.4459 38.0933 70.8326 39.8533 69.6059 40.92C68.4059 42.0133 66.6726 42.56 64.4059 42.56H61.9259V37.8H63.5259C64.3793 37.8 64.9793 37.6267 65.3259 37.28C65.6726 36.96 65.8459 36.4267 65.8459 35.68V9.84H71.4459V35.64ZM79.8188 7.2C78.8054 7.2 77.9654 6.89333 77.2988 6.28C76.6588 5.64 76.3388 4.85333 76.3388 3.92C76.3388 2.98667 76.6588 2.21333 77.2988 1.6C77.9654 0.959998 78.8054 0.639998 79.8188 0.639998C80.8054 0.639998 81.6188 0.959998 82.2588 1.6C82.8988 2.21333 83.2188 2.98667 83.2188 3.92C83.2188 4.85333 82.8988 5.64 82.2588 6.28C81.6188 6.89333 80.8054 7.2 79.8188 7.2ZM82.5788 35.64C82.5788 38.0933 81.9654 39.8533 80.7388 40.92C79.5388 42.0133 77.8054 42.56 75.5387 42.56H73.0587V37.8H74.6588C75.5121 37.8 76.1121 37.6267 76.4588 37.28C76.8054 36.96 76.9788 36.4267 76.9788 35.68V9.84H82.5788V35.64ZM86.6716 20.84C86.6716 18.6 87.1116 16.6133 87.9916 14.88C88.8982 13.1467 90.1116 11.8133 91.6316 10.88C93.1782 9.94667 94.8982 9.48 96.7916 9.48C98.4449 9.48 99.8849 9.81333 101.112 10.48C102.365 11.1467 103.365 11.9867 104.112 13V9.84H109.752V32H104.112V28.76C103.392 29.8 102.392 30.6667 101.112 31.36C99.8582 32.0267 98.4049 32.36 96.7516 32.36C94.8849 32.36 93.1782 31.88 91.6316 30.92C90.1116 29.96 88.8982 28.6133 87.9916 26.88C87.1116 25.12 86.6716 23.1067 86.6716 20.84ZM104.112 20.92C104.112 19.56 103.845 18.4 103.312 17.44C102.778 16.4533 102.058 15.7067 101.152 15.2C100.245 14.6667 99.2716 14.4 98.2316 14.4C97.1916 14.4 96.2316 14.6533 95.3516 15.16C94.4716 15.6667 93.7516 16.4133 93.1916 17.4C92.6582 18.36 92.3916 19.5067 92.3916 20.84C92.3916 22.1733 92.6582 23.3467 93.1916 24.36C93.7516 25.3467 94.4716 26.1067 95.3516 26.64C96.2582 27.1733 97.2182 27.44 98.2316 27.44C99.2716 27.44 100.245 27.1867 101.152 26.68C102.058 26.1467 102.778 25.4 103.312 24.44C103.845 23.4533 104.112 22.28 104.112 20.92ZM128.341 32L120.821 22.56V32H115.221V2.4H120.821V19.24L128.261 9.84H135.541L125.781 20.96L135.621 32H128.341ZM137.14 20.84C137.14 18.6 137.58 16.6133 138.46 14.88C139.367 13.1467 140.58 11.8133 142.1 10.88C143.647 9.94667 145.367 9.48 147.26 9.48C148.914 9.48 150.354 9.81333 151.58 10.48C152.834 11.1467 153.834 11.9867 154.58 13V9.84H160.22V32H154.58V28.76C153.86 29.8 152.86 30.6667 151.58 31.36C150.327 32.0267 148.874 32.36 147.22 32.36C145.354 32.36 143.647 31.88 142.1 30.92C140.58 29.96 139.367 28.6133 138.46 26.88C137.58 25.12 137.14 23.1067 137.14 20.84ZM154.58 20.92C154.58 19.56 154.314 18.4 153.78 17.44C153.247 16.4533 152.527 15.7067 151.62 15.2C150.714 14.6667 149.74 14.4 148.7 14.4C147.66 14.4 146.7 14.6533 145.82 15.16C144.94 15.6667 144.22 16.4133 143.66 17.4C143.127 18.36 142.86 19.5067 142.86 20.84C142.86 22.1733 143.127 23.3467 143.66 24.36C144.22 25.3467 144.94 26.1067 145.82 26.64C146.727 27.1733 147.687 27.44 148.7 27.44C149.74 27.44 150.714 27.1867 151.62 26.68C152.527 26.1467 153.247 25.4 153.78 24.44C154.314 23.4533 154.58 22.28 154.58 20.92ZM183.21 11.84C183.21 14.32 182.436 16.2533 180.89 17.64C179.343 19 177.05 19.68 174.01 19.68H168.01V32H166.21V3.92H174.01C177.103 3.92 179.41 4.64 180.93 6.08C182.45 7.49333 183.21 9.41333 183.21 11.84ZM174.01 18.08C178.943 18.08 181.41 16 181.41 11.84C181.41 9.78667 180.823 8.22667 179.65 7.16C178.476 6.06666 176.596 5.52 174.01 5.52H168.01V18.08H174.01ZM189.846 14.76C190.379 13.16 191.326 11.9467 192.686 11.12C194.046 10.2667 195.779 9.84 197.886 9.84V11.72H197.286C195.152 11.72 193.379 12.3333 191.966 13.56C190.552 14.76 189.846 16.7333 189.846 19.48V32H188.046V10.28H189.846V14.76ZM211.59 32.32C209.563 32.32 207.737 31.8667 206.11 30.96C204.483 30.0533 203.203 28.76 202.27 27.08C201.363 25.3733 200.91 23.3867 200.91 21.12C200.91 18.88 201.377 16.92 202.31 15.24C203.243 13.5333 204.523 12.24 206.15 11.36C207.803 10.4533 209.643 10 211.67 10C213.697 10 215.523 10.4533 217.15 11.36C218.777 12.24 220.043 13.52 220.95 15.2C221.883 16.88 222.35 18.8533 222.35 21.12C222.35 23.3867 221.883 25.3733 220.95 27.08C220.017 28.76 218.723 30.0533 217.07 30.96C215.443 31.8667 213.617 32.32 211.59 32.32ZM211.59 30.72C213.163 30.72 214.63 30.3733 215.99 29.68C217.377 28.96 218.483 27.88 219.31 26.44C220.137 25 220.55 23.2267 220.55 21.12C220.55 19.04 220.137 17.28 219.31 15.84C218.483 14.4 217.39 13.3333 216.03 12.64C214.67 11.92 213.203 11.56 211.63 11.56C210.057 11.56 208.59 11.92 207.23 12.64C205.897 13.3333 204.817 14.4 203.99 15.84C203.163 17.28 202.75 19.04 202.75 21.12C202.75 23.2267 203.15 25 203.95 26.44C204.777 27.88 205.857 28.96 207.19 29.68C208.55 30.3733 210.017 30.72 211.59 30.72ZM226.691 21.12C226.691 18.8533 227.131 16.88 228.011 15.2C228.918 13.52 230.158 12.24 231.731 11.36C233.331 10.4533 235.158 10 237.211 10C239.931 10 242.158 10.68 243.891 12.04C245.651 13.4 246.745 15.2267 247.171 17.52H245.291C244.945 15.6533 244.038 14.1867 242.571 13.12C241.131 12.0533 239.345 11.52 237.211 11.52C235.611 11.52 234.158 11.88 232.851 12.6C231.545 13.2933 230.491 14.3733 229.691 15.84C228.918 17.28 228.531 19.04 228.531 21.12C228.531 23.2267 228.918 25 229.691 26.44C230.491 27.88 231.545 28.96 232.851 29.68C234.158 30.4 235.611 30.76 237.211 30.76C239.345 30.76 241.131 30.2267 242.571 29.16C244.038 28.0933 244.945 26.6267 245.291 24.76H247.171C246.745 27.0267 245.651 28.8533 243.891 30.24C242.131 31.6267 239.905 32.32 237.211 32.32C235.158 32.32 233.331 31.8667 231.731 30.96C230.158 30.0533 228.918 28.76 228.011 27.08C227.131 25.3733 226.691 23.3867 226.691 21.12ZM271.015 10.28V32H269.215V27.28C268.602 28.9333 267.575 30.2 266.135 31.08C264.722 31.9333 263.095 32.36 261.255 32.36C258.668 32.36 256.548 31.5733 254.895 30C253.268 28.4 252.455 26.04 252.455 22.92V10.28H254.215V22.8C254.215 25.3867 254.868 27.3733 256.175 28.76C257.482 30.12 259.255 30.8 261.495 30.8C263.842 30.8 265.708 30.0533 267.095 28.56C268.508 27.0667 269.215 24.8533 269.215 21.92V10.28H271.015ZM279.377 14.76C279.91 13.16 280.857 11.9467 282.217 11.12C283.577 10.2667 285.31 9.84 287.417 9.84V11.72H286.817C284.684 11.72 282.91 12.3333 281.497 13.56C280.084 14.76 279.377 16.7333 279.377 19.48V32H277.577V10.28H279.377V14.76ZM311.121 19.68C311.121 20.64 311.095 21.36 311.041 21.84H292.281C292.335 23.7867 292.761 25.4267 293.561 26.76C294.361 28.0933 295.415 29.0933 296.721 29.76C298.028 30.4267 299.455 30.76 301.001 30.76C303.135 30.76 304.921 30.24 306.361 29.2C307.801 28.1333 308.708 26.6933 309.081 24.88H310.961C310.535 27.0933 309.441 28.8933 307.681 30.28C305.921 31.64 303.695 32.32 301.001 32.32C298.975 32.32 297.161 31.8667 295.561 30.96C293.961 30.0533 292.708 28.76 291.801 27.08C290.895 25.3733 290.441 23.3867 290.441 21.12C290.441 18.8533 290.881 16.88 291.761 15.2C292.668 13.52 293.921 12.24 295.521 11.36C297.121 10.4533 298.948 10 301.001 10C303.081 10 304.881 10.4533 306.401 11.36C307.948 12.24 309.121 13.4267 309.921 14.92C310.721 16.3867 311.121 17.9733 311.121 19.68ZM309.321 20.36C309.401 18.44 309.055 16.8133 308.281 15.48C307.535 14.1467 306.508 13.16 305.201 12.52C303.895 11.8533 302.481 11.52 300.961 11.52C299.441 11.52 298.028 11.8533 296.721 12.52C295.441 13.16 294.388 14.1467 293.561 15.48C292.761 16.8133 292.335 18.44 292.281 20.36H309.321Z" fill="black" fill-opacity="0.6"/>
<path d="M61.76 54.62V65H60.395V57.26L56.945 65H55.985L52.52 57.245V65H51.155V54.62H52.625L56.465 63.2L60.305 54.62H61.76ZM63.5649 60.86C63.5649 60.02 63.7349 59.285 64.0749 58.655C64.4149 58.015 64.8799 57.52 65.4699 57.17C66.0699 56.82 66.7349 56.645 67.4649 56.645C68.1849 56.645 68.8099 56.8 69.3399 57.11C69.8699 57.42 70.2649 57.81 70.5249 58.28V56.78H71.9049V65H70.5249V63.47C70.2549 63.95 69.8499 64.35 69.3099 64.67C68.7799 64.98 68.1599 65.135 67.4499 65.135C66.7199 65.135 66.0599 64.955 65.4699 64.595C64.8799 64.235 64.4149 63.73 64.0749 63.08C63.7349 62.43 63.5649 61.69 63.5649 60.86ZM70.5249 60.875C70.5249 60.255 70.3999 59.715 70.1499 59.255C69.8999 58.795 69.5599 58.445 69.1299 58.205C68.7099 57.955 68.2449 57.83 67.7349 57.83C67.2249 57.83 66.7599 57.95 66.3399 58.19C65.9199 58.43 65.5849 58.78 65.3349 59.24C65.0849 59.7 64.9599 60.24 64.9599 60.86C64.9599 61.49 65.0849 62.04 65.3349 62.51C65.5849 62.97 65.9199 63.325 66.3399 63.575C66.7599 63.815 67.2249 63.935 67.7349 63.935C68.2449 63.935 68.7099 63.815 69.1299 63.575C69.5599 63.325 69.8999 62.97 70.1499 62.51C70.3999 62.04 70.5249 61.495 70.5249 60.875ZM78.8016 65L75.5766 61.37V65H74.2116V53.9H75.5766V60.425L78.7416 56.78H80.6466L76.7766 60.875L80.6616 65H78.8016ZM82.6364 55.445C82.3764 55.445 82.1564 55.355 81.9764 55.175C81.7964 54.995 81.7064 54.775 81.7064 54.515C81.7064 54.255 81.7964 54.035 81.9764 53.855C82.1564 53.675 82.3764 53.585 82.6364 53.585C82.8864 53.585 83.0964 53.675 83.2664 53.855C83.4464 54.035 83.5364 54.255 83.5364 54.515C83.5364 54.775 83.4464 54.995 83.2664 55.175C83.0964 55.355 82.8864 55.445 82.6364 55.445ZM83.2964 56.78V65H81.9314V56.78H83.2964ZM89.6278 56.63C90.6278 56.63 91.4378 56.935 92.0578 57.545C92.6778 58.145 92.9878 59.015 92.9878 60.155V65H91.6378V60.35C91.6378 59.53 91.4328 58.905 91.0228 58.475C90.6128 58.035 90.0528 57.815 89.3428 57.815C88.6228 57.815 88.0478 58.04 87.6178 58.49C87.1978 58.94 86.9878 59.595 86.9878 60.455V65H85.6228V56.78H86.9878V57.95C87.2578 57.53 87.6228 57.205 88.0828 56.975C88.5528 56.745 89.0678 56.63 89.6278 56.63ZM98.6075 56.645C99.3175 56.645 99.9375 56.8 100.468 57.11C101.008 57.42 101.408 57.81 101.668 58.28V56.78H103.048V65.18C103.048 65.93 102.888 66.595 102.568 67.175C102.248 67.765 101.788 68.225 101.188 68.555C100.598 68.885 99.9075 69.05 99.1175 69.05C98.0375 69.05 97.1375 68.795 96.4175 68.285C95.6975 67.775 95.2725 67.08 95.1425 66.2H96.4925C96.6425 66.7 96.9525 67.1 97.4225 67.4C97.8925 67.71 98.4575 67.865 99.1175 67.865C99.8675 67.865 100.478 67.63 100.948 67.16C101.428 66.69 101.668 66.03 101.668 65.18V63.455C101.398 63.935 100.998 64.335 100.468 64.655C99.9375 64.975 99.3175 65.135 98.6075 65.135C97.8775 65.135 97.2125 64.955 96.6125 64.595C96.0225 64.235 95.5575 63.73 95.2175 63.08C94.8775 62.43 94.7075 61.69 94.7075 60.86C94.7075 60.02 94.8775 59.285 95.2175 58.655C95.5575 58.015 96.0225 57.52 96.6125 57.17C97.2125 56.82 97.8775 56.645 98.6075 56.645ZM101.668 60.875C101.668 60.255 101.543 59.715 101.293 59.255C101.043 58.795 100.703 58.445 100.273 58.205C99.8525 57.955 99.3875 57.83 98.8775 57.83C98.3675 57.83 97.9025 57.95 97.4825 58.19C97.0625 58.43 96.7275 58.78 96.4775 59.24C96.2275 59.7 96.1025 60.24 96.1025 60.86C96.1025 61.49 96.2275 62.04 96.4775 62.51C96.7275 62.97 97.0625 63.325 97.4825 63.575C97.9025 63.815 98.3675 63.935 98.8775 63.935C99.3875 63.935 99.8525 63.815 100.273 63.575C100.703 63.325 101.043 62.97 101.293 62.51C101.543 62.04 101.668 61.495 101.668 60.875ZM110.718 58.295C110.988 57.825 111.388 57.435 111.918 57.125C112.458 56.805 113.083 56.645 113.793 56.645C114.523 56.645 115.183 56.82 115.773 57.17C116.373 57.52 116.843 58.015 117.183 58.655C117.523 59.285 117.693 60.02 117.693 60.86C117.693 61.69 117.523 62.43 117.183 63.08C116.843 63.73 116.373 64.235 115.773 64.595C115.183 64.955 114.523 65.135 113.793 65.135C113.093 65.135 112.473 64.98 111.933 64.67C111.403 64.35 110.998 63.955 110.718 63.485V68.9H109.353V56.78H110.718V58.295ZM116.298 60.86C116.298 60.24 116.173 59.7 115.923 59.24C115.673 58.78 115.333 58.43 114.903 58.19C114.483 57.95 114.018 57.83 113.508 57.83C113.008 57.83 112.543 57.955 112.113 58.205C111.693 58.445 111.353 58.8 111.093 59.27C110.843 59.73 110.718 60.265 110.718 60.875C110.718 61.495 110.843 62.04 111.093 62.51C111.353 62.97 111.693 63.325 112.113 63.575C112.543 63.815 113.008 63.935 113.508 63.935C114.018 63.935 114.483 63.815 114.903 63.575C115.333 63.325 115.673 62.97 115.923 62.51C116.173 62.04 116.298 61.49 116.298 60.86ZM120.855 58.115C121.095 57.645 121.435 57.28 121.875 57.02C122.325 56.76 122.87 56.63 123.51 56.63V58.04H123.15C121.62 58.04 120.855 58.87 120.855 60.53V65H119.49V56.78H120.855V58.115ZM128.671 65.135C127.901 65.135 127.201 64.96 126.571 64.61C125.951 64.26 125.461 63.765 125.101 63.125C124.751 62.475 124.576 61.725 124.576 60.875C124.576 60.035 124.756 59.295 125.116 58.655C125.486 58.005 125.986 57.51 126.616 57.17C127.246 56.82 127.951 56.645 128.731 56.645C129.511 56.645 130.216 56.82 130.846 57.17C131.476 57.51 131.971 58 132.331 58.64C132.701 59.28 132.886 60.025 132.886 60.875C132.886 61.725 132.696 62.475 132.316 63.125C131.946 63.765 131.441 64.26 130.801 64.61C130.161 64.96 129.451 65.135 128.671 65.135ZM128.671 63.935C129.161 63.935 129.621 63.82 130.051 63.59C130.481 63.36 130.826 63.015 131.086 62.555C131.356 62.095 131.491 61.535 131.491 60.875C131.491 60.215 131.361 59.655 131.101 59.195C130.841 58.735 130.501 58.395 130.081 58.175C129.661 57.945 129.206 57.83 128.716 57.83C128.216 57.83 127.756 57.945 127.336 58.175C126.926 58.395 126.596 58.735 126.346 59.195C126.096 59.655 125.971 60.215 125.971 60.875C125.971 61.545 126.091 62.11 126.331 62.57C126.581 63.03 126.911 63.375 127.321 63.605C127.731 63.825 128.181 63.935 128.671 63.935ZM134.17 60.875C134.17 60.025 134.34 59.285 134.68 58.655C135.02 58.015 135.49 57.52 136.09 57.17C136.7 56.82 137.395 56.645 138.175 56.645C139.185 56.645 140.015 56.89 140.665 57.38C141.325 57.87 141.76 58.55 141.97 59.42H140.5C140.36 58.92 140.085 58.525 139.675 58.235C139.275 57.945 138.775 57.8 138.175 57.8C137.395 57.8 136.765 58.07 136.285 58.61C135.805 59.14 135.565 59.895 135.565 60.875C135.565 61.865 135.805 62.63 136.285 63.17C136.765 63.71 137.395 63.98 138.175 63.98C138.775 63.98 139.275 63.84 139.675 63.56C140.075 63.28 140.35 62.88 140.5 62.36H141.97C141.75 63.2 141.31 63.875 140.65 64.385C139.99 64.885 139.165 65.135 138.175 65.135C137.395 65.135 136.7 64.96 136.09 64.61C135.49 64.26 135.02 63.765 134.68 63.125C134.34 62.485 134.17 61.735 134.17 60.875ZM151.082 56.78V65H149.717V63.785C149.457 64.205 149.092 64.535 148.622 64.775C148.162 65.005 147.652 65.12 147.092 65.12C146.452 65.12 145.877 64.99 145.367 64.73C144.857 64.46 144.452 64.06 144.152 63.53C143.862 63 143.717 62.355 143.717 61.595V56.78H145.067V61.415C145.067 62.225 145.272 62.85 145.682 63.29C146.092 63.72 146.652 63.935 147.362 63.935C148.092 63.935 148.667 63.71 149.087 63.26C149.507 62.81 149.717 62.155 149.717 61.295V56.78H151.082ZM154.751 58.115C154.991 57.645 155.331 57.28 155.771 57.02C156.221 56.76 156.766 56.63 157.406 56.63V58.04H157.046C155.516 58.04 154.751 58.87 154.751 60.53V65H153.386V56.78H154.751V58.115ZM166.482 60.575C166.482 60.835 166.467 61.11 166.437 61.4H159.867C159.917 62.21 160.192 62.845 160.692 63.305C161.202 63.755 161.817 63.98 162.537 63.98C163.127 63.98 163.617 63.845 164.007 63.575C164.407 63.295 164.687 62.925 164.847 62.465H166.317C166.097 63.255 165.657 63.9 164.997 64.4C164.337 64.89 163.517 65.135 162.537 65.135C161.757 65.135 161.057 64.96 160.437 64.61C159.827 64.26 159.347 63.765 158.997 63.125C158.647 62.475 158.472 61.725 158.472 60.875C158.472 60.025 158.642 59.28 158.982 58.64C159.322 58 159.797 57.51 160.407 57.17C161.027 56.82 161.737 56.645 162.537 56.645C163.317 56.645 164.007 56.815 164.607 57.155C165.207 57.495 165.667 57.965 165.987 58.565C166.317 59.155 166.482 59.825 166.482 60.575ZM165.072 60.29C165.072 59.77 164.957 59.325 164.727 58.955C164.497 58.575 164.182 58.29 163.782 58.1C163.392 57.9 162.957 57.8 162.477 57.8C161.787 57.8 161.197 58.02 160.707 58.46C160.227 58.9 159.952 59.51 159.882 60.29H165.072ZM178.169 56.63C178.809 56.63 179.379 56.765 179.879 57.035C180.379 57.295 180.774 57.69 181.064 58.22C181.354 58.75 181.499 59.395 181.499 60.155V65H180.149V60.35C180.149 59.53 179.944 58.905 179.534 58.475C179.134 58.035 178.589 57.815 177.899 57.815C177.189 57.815 176.624 58.045 176.204 58.505C175.784 58.955 175.574 59.61 175.574 60.47V65H174.224V60.35C174.224 59.53 174.019 58.905 173.609 58.475C173.209 58.035 172.664 57.815 171.974 57.815C171.264 57.815 170.699 58.045 170.279 58.505C169.859 58.955 169.649 59.61 169.649 60.47V65H168.284V56.78H169.649V57.965C169.919 57.535 170.279 57.205 170.729 56.975C171.189 56.745 171.694 56.63 172.244 56.63C172.934 56.63 173.544 56.785 174.074 57.095C174.604 57.405 174.999 57.86 175.259 58.46C175.489 57.88 175.869 57.43 176.399 57.11C176.929 56.79 177.519 56.63 178.169 56.63ZM191.238 60.575C191.238 60.835 191.223 61.11 191.193 61.4H184.623C184.673 62.21 184.948 62.845 185.448 63.305C185.958 63.755 186.573 63.98 187.293 63.98C187.883 63.98 188.373 63.845 188.763 63.575C189.163 63.295 189.443 62.925 189.603 62.465H191.073C190.853 63.255 190.413 63.9 189.753 64.4C189.093 64.89 188.273 65.135 187.293 65.135C186.513 65.135 185.813 64.96 185.193 64.61C184.583 64.26 184.103 63.765 183.753 63.125C183.403 62.475 183.228 61.725 183.228 60.875C183.228 60.025 183.398 59.28 183.738 58.64C184.078 58 184.553 57.51 185.163 57.17C185.783 56.82 186.493 56.645 187.293 56.645C188.073 56.645 188.763 56.815 189.363 57.155C189.963 57.495 190.423 57.965 190.743 58.565C191.073 59.155 191.238 59.825 191.238 60.575ZM189.828 60.29C189.828 59.77 189.713 59.325 189.483 58.955C189.253 58.575 188.938 58.29 188.538 58.1C188.148 57.9 187.713 57.8 187.233 57.8C186.543 57.8 185.953 58.02 185.463 58.46C184.983 58.9 184.708 59.51 184.638 60.29H189.828ZM197.045 56.63C198.045 56.63 198.855 56.935 199.475 57.545C200.095 58.145 200.405 59.015 200.405 60.155V65H199.055V60.35C199.055 59.53 198.85 58.905 198.44 58.475C198.03 58.035 197.47 57.815 196.76 57.815C196.04 57.815 195.465 58.04 195.035 58.49C194.615 58.94 194.405 59.595 194.405 60.455V65H193.04V56.78H194.405V57.95C194.675 57.53 195.04 57.205 195.5 56.975C195.97 56.745 196.485 56.63 197.045 56.63ZM204.299 57.905V62.75C204.299 63.15 204.384 63.435 204.554 63.605C204.724 63.765 205.019 63.845 205.439 63.845H206.444V65H205.214C204.454 65 203.884 64.825 203.504 64.475C203.124 64.125 202.934 63.55 202.934 62.75V57.905H201.869V56.78H202.934V54.71H204.299V56.78H206.444V57.905H204.299ZM215.007 65.135C214.377 65.135 213.812 65.03 213.312 64.82C212.812 64.6 212.417 64.3 212.127 63.92C211.837 63.53 211.677 63.085 211.647 62.585H213.057C213.097 62.995 213.287 63.33 213.627 63.59C213.977 63.85 214.432 63.98 214.992 63.98C215.512 63.98 215.922 63.865 216.222 63.635C216.522 63.405 216.672 63.115 216.672 62.765C216.672 62.405 216.512 62.14 216.192 61.97C215.872 61.79 215.377 61.615 214.707 61.445C214.097 61.285 213.597 61.125 213.207 60.965C212.827 60.795 212.497 60.55 212.217 60.23C211.947 59.9 211.812 59.47 211.812 58.94C211.812 58.52 211.937 58.135 212.187 57.785C212.437 57.435 212.792 57.16 213.252 56.96C213.712 56.75 214.237 56.645 214.827 56.645C215.737 56.645 216.472 56.875 217.032 57.335C217.592 57.795 217.892 58.425 217.932 59.225H216.567C216.537 58.795 216.362 58.45 216.042 58.19C215.732 57.93 215.312 57.8 214.782 57.8C214.292 57.8 213.902 57.905 213.612 58.115C213.322 58.325 213.177 58.6 213.177 58.94C213.177 59.21 213.262 59.435 213.432 59.615C213.612 59.785 213.832 59.925 214.092 60.035C214.362 60.135 214.732 60.25 215.202 60.38C215.792 60.54 216.272 60.7 216.642 60.86C217.012 61.01 217.327 61.24 217.587 61.55C217.857 61.86 217.997 62.265 218.007 62.765C218.007 63.215 217.882 63.62 217.632 63.98C217.382 64.34 217.027 64.625 216.567 64.835C216.117 65.035 215.597 65.135 215.007 65.135ZM220.639 55.445C220.379 55.445 220.159 55.355 219.979 55.175C219.799 54.995 219.709 54.775 219.709 54.515C219.709 54.255 219.799 54.035 219.979 53.855C220.159 53.675 220.379 53.585 220.639 53.585C220.889 53.585 221.099 53.675 221.269 53.855C221.449 54.035 221.539 54.255 221.539 54.515C221.539 54.775 221.449 54.995 221.269 55.175C221.099 55.355 220.889 55.445 220.639 55.445ZM221.299 56.78V65H219.934V56.78H221.299ZM233.511 56.63C234.151 56.63 234.721 56.765 235.221 57.035C235.721 57.295 236.116 57.69 236.406 58.22C236.696 58.75 236.841 59.395 236.841 60.155V65H235.491V60.35C235.491 59.53 235.286 58.905 234.876 58.475C234.476 58.035 233.931 57.815 233.241 57.815C232.531 57.815 231.966 58.045 231.546 58.505C231.126 58.955 230.916 59.61 230.916 60.47V65H229.566V60.35C229.566 59.53 229.361 58.905 228.951 58.475C228.551 58.035 228.006 57.815 227.316 57.815C226.606 57.815 226.041 58.045 225.621 58.505C225.201 58.955 224.991 59.61 224.991 60.47V65H223.626V56.78H224.991V57.965C225.261 57.535 225.621 57.205 226.071 56.975C226.531 56.745 227.036 56.63 227.586 56.63C228.276 56.63 228.886 56.785 229.416 57.095C229.946 57.405 230.341 57.86 230.601 58.46C230.831 57.88 231.211 57.43 231.741 57.11C232.271 56.79 232.861 56.63 233.511 56.63ZM240.445 58.295C240.715 57.825 241.115 57.435 241.645 57.125C242.185 56.805 242.81 56.645 243.52 56.645C244.25 56.645 244.91 56.82 245.5 57.17C246.1 57.52 246.57 58.015 246.91 58.655C247.25 59.285 247.42 60.02 247.42 60.86C247.42 61.69 247.25 62.43 246.91 63.08C246.57 63.73 246.1 64.235 245.5 64.595C244.91 64.955 244.25 65.135 243.52 65.135C242.82 65.135 242.2 64.98 241.66 64.67C241.13 64.35 240.725 63.955 240.445 63.485V68.9H239.08V56.78H240.445V58.295ZM246.025 60.86C246.025 60.24 245.9 59.7 245.65 59.24C245.4 58.78 245.06 58.43 244.63 58.19C244.21 57.95 243.745 57.83 243.235 57.83C242.735 57.83 242.27 57.955 241.84 58.205C241.42 58.445 241.08 58.8 240.82 59.27C240.57 59.73 240.445 60.265 240.445 60.875C240.445 61.495 240.57 62.04 240.82 62.51C241.08 62.97 241.42 63.325 241.84 63.575C242.27 63.815 242.735 63.935 243.235 63.935C243.745 63.935 244.21 63.815 244.63 63.575C245.06 63.325 245.4 62.97 245.65 62.51C245.9 62.04 246.025 61.49 246.025 60.86ZM250.582 53.9V65H249.217V53.9H250.582ZM260.408 60.575C260.408 60.835 260.393 61.11 260.363 61.4H253.793C253.843 62.21 254.118 62.845 254.618 63.305C255.128 63.755 255.743 63.98 256.463 63.98C257.053 63.98 257.543 63.845 257.933 63.575C258.333 63.295 258.613 62.925 258.773 62.465H260.243C260.023 63.255 259.583 63.9 258.923 64.4C258.263 64.89 257.443 65.135 256.463 65.135C255.683 65.135 254.983 64.96 254.363 64.61C253.753 64.26 253.273 63.765 252.923 63.125C252.573 62.475 252.398 61.725 252.398 60.875C252.398 60.025 252.568 59.28 252.908 58.64C253.248 58 253.723 57.51 254.333 57.17C254.953 56.82 255.663 56.645 256.463 56.645C257.243 56.645 257.933 56.815 258.533 57.155C259.133 57.495 259.593 57.965 259.913 58.565C260.243 59.155 260.408 59.825 260.408 60.575ZM258.998 60.29C258.998 59.77 258.883 59.325 258.653 58.955C258.423 58.575 258.108 58.29 257.708 58.1C257.318 57.9 256.883 57.8 256.403 57.8C255.713 57.8 255.123 58.02 254.633 58.46C254.153 58.9 253.878 59.51 253.808 60.29H258.998ZM262.645 65.09C262.385 65.09 262.165 65 261.985 64.82C261.805 64.64 261.715 64.42 261.715 64.16C261.715 63.9 261.805 63.68 261.985 63.5C262.165 63.32 262.385 63.23 262.645 63.23C262.895 63.23 263.105 63.32 263.275 63.5C263.455 63.68 263.545 63.9 263.545 64.16C263.545 64.42 263.455 64.64 263.275 64.82C263.105 65 262.895 65.09 262.645 65.09Z" fill="black" fill-opacity="0.6"/>
</svg>
