<?xml version="1.0" encoding="UTF-8"?>
<svg width="176px" height="176px" viewBox="0 0 176 176" version="1.1" xmlns="http://www.w3.org/2000/svg" xmlns:xlink="http://www.w3.org/1999/xlink">
    <!-- Generator: Sketch 54 (76480) - https://sketchapp.com -->
    <title>Tradeshift.Storefront</title>
    <desc>Created with Sketch.</desc>
    <g id="Tradeshift.Storefront" stroke="none" stroke-width="1" fill="none" fill-rule="evenodd">
        <g id="Tradeshift/Storefront">
            <path d="M16.672,176 C7.464,176 0,168.536 0,159.328 L0,16.672 C0,7.464 7.464,0 16.672,0 L159.328,0 C168.536,0 176,7.464 176,16.672 L176,159.328 C176,168.536 168.536,176 159.328,176 L16.672,176 Z" id="background" fill="#00AEFF" fill-rule="nonzero"></path>
            <path d="M47,44 L27,44 C24.2731115,44 22,46.2802805 22,49 C22,52.0567376 24.2731115,54.3371449 27,54 L43,54 L55,104 C55.3311321,106.327794 57.4528291,108 60,108 L116,108 C117.785265,108 119.755421,106.479813 120,104 L134,60 C133.848459,59.2017433 134,58.745814 134,58 C134,56.0096042 132.484719,53.8812156 130,53 C129.757111,53.1209953 129.30211,53.1209953 129,53 C126.574503,53.1209953 124.452932,54.4890368 124,57 L123,59 L54,59 L52,48 C51.088117,45.6720789 48.9664199,44 47,44 Z M73,113 C66.7174327,113 62,117.717518 62,124 C62,129.282609 66.7174327,134 73,134 C78.2826942,134 83,129.282609 83,124 C83,117.717518 78.2826942,113 73,113 Z M103,113 C97.7175182,113 93,117.717518 93,124 C93,129.282609 97.7175182,134 103,134 C109.282482,134 114,129.282609 114,124 C114,117.717518 109.282482,113 103,113 Z M86,78 L68,78 L70,88 L86,88 L86,78 Z M120,69 L112,96 L112,97 L64,97 L57,69 L120,69 Z M109,78 L91,78 L91,88 L106,88 L109,78 Z" id="icon" fill="#FFFFFF" fill-rule="evenodd"></path>
        </g>
    </g>
</svg>