<svg width="176" height="176" viewBox="0 0 176 176" xmlns="http://www.w3.org/2000/svg"><g fill="none" fill-rule="evenodd"><path d="M158.903 176H17.097C7.464 176 0 168.536 0 159V17C0 7.464 7.464 0 17.097 0h141.806C168.536 0 176 7.464 176 17v142c0 9.536-7.464 17-17.097 17" fill="#00aeff" fill-rule="nonzero"/><path d="M87.658 32.877c-4.635 0-8.508 3.17-9.605 7.477H67.83v12.46h39.658v-12.46H97.263c-1.097-4.307-4.97-7.477-9.605-7.477zM52.125 142.533A4.125 4.125 0 0 1 48 138.408V49.463a4.125 4.125 0 0 1 4.125-4.125H65.35v7.477a2.486 2.486 0 0 0 2.479 2.492h39.658a2.486 2.486 0 0 0 2.478-2.492v-7.477h13.226a4.125 4.125 0 0 1 4.125 4.125v88.945a4.125 4.125 0 0 1-4.125 4.125H52.125zm11.193-56.449a2.562 2.562 0 0 0 1.898-1.186l5.948-9.436a2.59 2.59 0 0 0 .22-2.647 2.563 2.563 0 0 0-2.223-1.437 2.561 2.561 0 0 0-2.304 1.3L62.6 79.432l-2-2.01a2.565 2.565 0 0 0-2.487-.67 2.582 2.582 0 0 0-1.82 1.83 2.598 2.598 0 0 0 .666 2.5l4.257 4.28a2.557 2.557 0 0 0 1.794.774l.308-.052zm54.41-9.436H76.703v5.156h41.025v-5.156zm-54.41 30.061a2.562 2.562 0 0 0 1.898-1.186l6-9.436a2.586 2.586 0 0 0-.841-3.446 2.555 2.555 0 0 0-3.467.662l-4.257 6.754-2-2.01a2.565 2.565 0 0 0-3.64 0 2.599 2.599 0 0 0 0 3.66l4.256 4.28a2.557 2.557 0 0 0 1.795.774l.256-.052zm54.41-9.436H76.703v5.156h41.025v-5.156zm0 20.625H76.703v5.156h41.025v-5.156z" fill="#fff"/><path d="M69.071 127.563h-9.224a2.577 2.577 0 0 1-2.568-2.582v-9.275a2.577 2.577 0 0 1 2.568-2.581h9.224a2.577 2.577 0 0 1 2.567 2.581v9.275a2.577 2.577 0 0 1-2.567 2.582zm-7.687-10.657a.346.346 0 0 0-.344.346v6.183c0 .19.155.346.344.346h6.15c.19 0 .344-.155.344-.346v-6.183a.346.346 0 0 0-.344-.346h-6.15z" fill="#00aeff"/></g></svg>